<svg id="Layer_1" data-name="Layer 1" xmlns="http://www.w3.org/2000/svg" viewBox="0 0 512 512"><defs><style>.cls-1{fill:#fff;}.cls-2{fill:#d41b56;}.cls-3{fill:#a11441;}</style></defs><title>encircled-rose</title><path class="cls-1" d="M256,481.5a225.5,225.5,0,0,1-159.45-385A225.5,225.5,0,0,1,415.45,415.45,224,224,0,0,1,256,481.5Z"/><path d="M256,46.5A209.56,209.56,0,0,1,337.54,449,209.56,209.56,0,0,1,174.46,63,208.16,208.16,0,0,1,256,46.5m0-32C122.62,14.5,14.5,122.62,14.5,256S122.62,497.5,256,497.5,497.5,389.38,497.5,256,389.38,14.5,256,14.5Z"/><path class="cls-2" d="M246.66,173.55s-1.24.19-3.2.69c1.19.05,2.39.09,3.61.13C265.79,174.87,246.66,173.55,246.66,173.55Zm-46-29.86a237.89,237.89,0,0,0,46.2,26.64s66.65-34.71,59.55-56.5c0,0-23.93-24.15-59.16-14.35,0,0-18.35,3.94-31.69,12.73C215.58,112.2,197.56,122.13,200.69,143.69Zm76.24,28.7s-35.4,4.36-59.34,32.67c0,0,34.58,19.22,39.2,26.9,0,0,94.7-24.77,81.56-86.56a195.25,195.25,0,0,0-28.52-32.59S327.33,143.52,276.93,172.39ZM397.29,237s-13.2-60.34-31.49-91.2c0,0-1.85,71.84-90.39,91.2,0,0,104,88.8.8,177.84C276.22,414.86,410.93,386.78,397.29,237ZM212,203.6c4.37-20.59,23.72-27.43,31.41-29.37-17.19-.75-32.39-4.17-57.73-30.54l-.77-.81C159.45,115.55,201.87,119,201.87,119c-3.13-4.7-15.27-3.92-15.27-3.92-22.32,3.53-29.92,28.56-29.92,28.56C152.59,189.07,212,203.6,212,203.6Zm64,59.1s-20-17.2-40-27.82c0,0-61.49-17.53-77.64-42.9,0,0-16.91-22.82-13.84-48.3,0,0-75.89,138.72,10.48,212.26,0,0,35.86,45.81,121.07,58.92C276.12,414.86,344.42,329.58,276,262.71Z"/><path class="cls-3" d="M397.29,237s-13.2-60.34-31.49-91.2c0,0-1.85,71.84-90.39,91.2,0,0,104,88.8.8,177.84C276.22,414.86,410.93,386.78,397.29,237Z"/><path class="cls-3" d="M276,262.71s-20-17.2-40-27.82c0,0-61.49-17.53-77.64-42.9,0,0-16.91-22.82-13.84-48.3,0,0-75.89,138.72,10.48,212.26,0,0,35.86,45.81,121.07,58.92C276.12,414.86,344.42,329.58,276,262.71Z"/><path class="cls-3" d="M200.69,143.69a237.89,237.89,0,0,0,46.2,26.64s66.65-34.71,59.55-56.5c0,0-23.93-24.15-59.16-14.35,0,0-18.35,3.94-31.69,12.73C215.58,112.2,197.56,122.13,200.69,143.69Z"/></svg>