<svg id="Layer_1" data-name="Layer 1" xmlns="http://www.w3.org/2000/svg" viewBox="0 0 512 512"><defs><style>.cls-1{fill:#d41b56;}.cls-2{fill:#a11441;}</style></defs><title>plain-rose</title><path class="cls-1" d="M241.76,130.28s-1.9.3-4.88,1c1.82.08,3.64.14,5.5.19C270.93,132.31,241.76,130.28,241.76,130.28ZM171.67,84.76a362.71,362.71,0,0,0,70.44,40.62s101.62-52.92,90.8-86.15c0,0-36.48-36.82-90.21-21.89,0,0-28,6-48.32,19.41C194.38,36.75,166.89,51.89,171.67,84.76Zm116.24,43.76s-54,6.65-90.47,49.81c0,0,52.72,29.31,59.77,41,0,0,144.38-37.77,124.35-132a297.69,297.69,0,0,0-43.48-49.68S364.75,84.5,287.91,128.52Zm183.51,98.55s-20.12-92-48-139.05c0,0-2.81,109.54-137.81,139.05,0,0,158.56,135.39,1.23,271.15C286.83,498.21,492.22,455.4,471.42,227.07ZM189,176.11c6.67-31.39,36.16-41.83,47.9-44.78-26.21-1.15-49.38-6.35-88-46.57l-1.17-1.23c-38.89-41.67,25.78-36.34,25.78-36.34-4.78-7.16-23.28-6-23.28-6-34,5.37-45.62,43.55-45.62,43.55C98.32,154,189,176.11,189,176.11Zm97.53,90.11S256,240,225.57,223.81c0,0-93.75-26.73-118.37-65.41,0,0-25.79-34.79-21.1-73.64,0,0-115.71,211.5,16,323.63,0,0,54.68,69.85,184.59,89.83C286.68,498.22,390.81,368.19,286.52,266.23Z"/><path class="cls-2" d="M471.42,227.07s-20.12-92-48-139.05c0,0-2.81,109.54-137.81,139.05,0,0,158.56,135.39,1.23,271.15C286.83,498.21,492.22,455.4,471.42,227.07Z"/><path class="cls-2" d="M286.52,266.23S256,240,225.57,223.81c0,0-93.75-26.73-118.37-65.41,0,0-25.79-34.79-21.1-73.64,0,0-115.71,211.5,16,323.63,0,0,54.68,69.85,184.59,89.83C286.68,498.22,390.81,368.19,286.52,266.23Z"/><path class="cls-2" d="M171.67,84.76a362.71,362.71,0,0,0,70.44,40.62s101.62-52.92,90.8-86.15c0,0-36.48-36.82-90.21-21.89,0,0-28,6-48.32,19.41C194.38,36.75,166.89,51.89,171.67,84.76Z"/></svg>